# https://github.com/mikedh/trimesh
mtllib material.mtl
usemtl mtl1
v 10.00000000 6.11215210 7.01272011
v 10.00000000 6.11423683 7.07981110
v 0.00000062 6.13138914 9.14823246
v 0.00000065 6.12679338 9.00030804
v 10.00000000 6.11718416 7.17468357
v 0.00000057 6.13788843 9.35740948
v 10.00000000 6.12167120 7.31909847
v 0.00000049 6.14778090 9.67581749
v 10.00000000 6.12932873 7.56557274
v 0.00000036 6.16466427 10.21924877
v 10.00000000 6.14535522 8.08141804
v 0.00000010 6.19999981 11.35659409
v 10.00000000 6.19999981 9.84026241
v 6.50000000 0.00000001 7.41883850
v 7.40000010 0.50000000 7.31562805
v 6.40000010 0.20000000 7.50209045
v 10.00000000 6.08207321 6.92663956
v 10.00000000 6.09999990 7.07488537
v 0.00000062 6.09999990 9.13737106
v 0.00000056 6.06047535 8.81051731
v 5.00000000 1.50000000 7.78660583
v 5.80000019 1.39999998 7.63703918
v 4.70000029 2.40000010 7.83106995
v 4.07142878 0.00000001 7.89322948
v 4.78000021 0.00000001 7.74433899
v 4.70000029 0.40000001 7.82514954
v 1.60000014 1.29999995 8.47511292
v 0.80000007 1.39999998 8.67137146
v 1.20000005 0.89999998 8.49708557
v 2.70000005 0.00000000 8.15835857
v 3.30000019 0.00000001 8.04156494
v 3.00000000 0.30000001 8.13883972
v 0.70000011 0.69999999 8.59608459
v 0.70000011 0.60000002 8.58433533
v 1.10000014 0.89999998 8.51249695
v 5.50000000 3.20000005 7.79429626
v 5.40000010 3.29999995 7.82365417
v 5.09999990 0.89999998 7.70939636
v 5.09999990 0.40000001 7.76939392
v 5.90000010 0.50000000 7.61048889
v 6.00000000 0.50000000 7.59312439
v 8.00000000 3.29999995 7.27336121
v 8.19999981 3.20000005 7.24748230
v 9.00000000 3.20000005 7.07048035
v 8.69999981 5.90000010 7.06089783
v 9.39999962 2.20000005 6.90214539
v 9.50000000 2.20000005 6.88722229
v 6.40000010 2.40000010 7.47920227
v 6.30000019 2.59999990 7.50990295
v 6.50000000 3.20000005 7.56867981
v 10.00000000 0.50000000 6.81907654
v 9.00000000 0.80000001 6.97190857
v 9.10000038 0.60000002 7.00715637
v 0.00000014 6.00489235 8.73331261
v 0.00000013 6.00000000 8.72651672
v 7.90000010 6.00000000 7.21455383
v 0.00000017 6.01715803 8.75034904
v 10.00000000 6.02019215 6.84068680
v 10.00000000 5.79600000 6.82756615
v 10.00000000 5.92708349 6.83097744
v 0.00000001 5.96504402 8.77580738
v 2.50000000 2.70000005 8.29075623
v 2.40000010 3.40000010 8.39598083
v 1.50000012 2.20000005 8.51603699
v 5.59999990 3.50000000 7.70561218
v 7.80000019 3.20000005 7.31510925
v 7.90000010 2.29999995 7.17991638
v 4.90000010 3.40000010 7.88395691
v 5.50000000 3.29999995 7.80455017
v 6.24285746 0.00000000 7.51916313
v 6.30000019 0.20000000 7.52485657
v 5.76666689 0.00000000 7.60099125
v 5.50000000 0.40000001 7.67784119
v 8.39999962 1.50000000 7.09764099
v 8.60000038 1.89999998 7.04585266
v 7.90000010 2.09999990 7.17521667
v 8.19999981 0.10000001 7.09941101
v 7.90000010 0.50000000 7.20640564
v 7.80000019 0.00000001 7.15800476
v 10.00000000 1.41999996 6.85143089
v 10.00000000 1.44000006 6.85082722
v 9.19999981 1.60000002 6.97856140
v 9.19999981 1.50000000 6.98158264
v 10.00000000 2.23571420 6.80567455
v 10.00000000 3.09999990 6.91114807
v 5.40000010 0.80000001 7.64811707
v 6.90000010 1.50000000 7.40797424
v 5.40000010 0.89999998 7.64491272
v 5.90000010 3.79999995 7.63334656
v 8.60000038 2.00000000 7.04850769
v 6.59999990 3.29999995 7.56025696
v 7.21818209 0.00000002 7.32372952
v 5.00000000 0.00000001 7.70524597
v 5.50000000 0.00000000 7.66212082
v 0.00000010 2.57500005 8.78556824
v 0.00000009 2.20000005 8.79693508
v 0.00000009 0.94999999 8.75576782
v 0.00000009 0.83749998 8.75239182
v 0.10000010 0.89999998 8.72938538
v 9.30000019 2.20000005 6.92552185
v 7.59999990 1.39999998 7.28746033
v 7.70000029 1.10000002 7.23588562
v 7.80000019 1.29999995 7.27882385
v 3.10000014 1.79999995 8.11192322
v 3.10000014 0.30000001 8.12364197
v 3.30000019 0.50000000 8.06565857
v 1.70000005 0.80000001 8.39179993
v 1.70000005 0.30000001 8.41880798
v 2.50000000 0.30000001 8.26695251
v 1.10000014 0.20000000 8.52601624
v 1.60000014 0.80000001 8.39863586
v 8.10000038 0.89999998 7.13920593
v 7.50000000 0.89999998 7.25642395
v 3.48750019 0.00000001 7.98980331
v 10.00000000 2.16428566 6.79438305
v 0.48000011 0.00000001 8.63630104
v 1.20000005 0.00000001 8.48158264
v 0.50000012 0.30000001 8.64582825
v 7.40000010 0.89999998 7.27140808
v 8.69999981 0.80000001 7.03038025
v 8.69999981 1.60000002 7.10911560
v 8.19999981 0.00000001 7.10477448
v 5.80000019 3.79999995 7.65184021
v 2.50000000 0.00000000 8.20960426
v 8.92000008 0.00000000 7.00332928
v 8.62222195 0.00000001 7.05454350
v 8.39999962 0.50000000 7.12174988
v 0.00000010 3.54999995 8.86451721
v 0.00000009 2.95000005 8.80829239
v 1.10000014 3.50000000 8.66062927
v 2.60000014 3.59999990 8.34486389
v 3.10000014 3.40000010 8.24629211
v 3.20000005 4.19999981 8.16270447
v 10.00000000 4.59999990 6.83193398
v 0.00000009 0.21428572 8.76102924
v 0.00000009 0.00000000 8.75137043
v 0.11818191 0.00000000 8.72705173
v 0.20000009 0.30000001 8.72373962
v 0.00000009 0.32222223 8.76589489
v 1.76000011 0.00000000 8.36263084
v 0.20000009 0.40000001 8.72993469
v 9.63333321 0.00000001 6.86925793
v 9.93750000 0.00000001 6.80734634
v 3.90000010 3.29999995 8.08650208
v 3.70000005 3.29999995 8.14607239
v 0.00000000 5.93923092 8.76850128
v 0.00000004 5.14803934 8.79744434
v 0.00000010 1.29999995 8.79414368
v 0.20000009 1.00000000 8.71287537
v 10.00000000 3.99333334 6.84216785
v 10.00000000 3.61666656 6.85217762
v 10.00000000 3.50000000 6.84626770
v 10.00000000 0.10000001 6.80345154
v 10.00000000 0.19230770 6.80705738
v 9.97500038 0.00000001 6.80266571
v 0.00000009 0.40000001 8.77071285
v 2.08000016 0.00000000 8.30188942
v 0.33636373 0.00000000 8.67038918
v 10.00000000 1.62857139 6.83841610
v 0.20000009 1.29999995 8.77870178
v 0.00000009 1.70000005 8.80633354
v 0.00000005 4.60727262 8.80013371
v 0.00000010 4.05116272 8.80873489
v 8.32857132 0.00000001 7.10559750
v 8.23333359 0.00000001 7.09931946
v 10.00000000 0.00000001 6.79635525
v 3.35000014 0.00000001 8.03396606
v 0.00000010 3.75000000 8.84571838
v 7.65000010 0.00000001 7.20538330
vn 0.19436390 -0.07033378 0.97840474
vn 0.00470903 -0.99950659 0.03105487
vn 0.00470895 -0.99950660 0.03105436
vn 0.19398198 -0.09236442 0.97664723
vn 0.00470858 -0.99950666 0.03105271
vn 0.00470888 -0.99950661 0.03105415
vn 0.00470892 -0.99950661 0.03105419
vn 0.00470862 -0.99950665 0.03105295
vn 0.00470865 -0.99950665 0.03105300
vn 0.00470864 -0.99950665 0.03105297
vn 0.00470868 -0.99950664 0.03105311
vn 0.00470868 -0.99950664 0.03105311
vn 0.00470868 -0.99950664 0.03105313
vn 0.25603942 -0.19651046 0.94648162
vn 0.19461079 0.01099859 0.98081888
vn 0.22414453 -0.15030493 0.96289546
vn 0.07498024 -0.91882548 0.38747606
vn 0.20182586 -0.04115915 0.97855620
vn 0.20189488 -0.03178551 0.97889128
vn 0.06548956 -0.93927319 0.33686345
vn 0.19029464 -0.02340393 0.98144802
vn 0.17608239 -0.01260906 0.98429467
vn 0.18918458 -0.05226765 0.98054948
vn 0.16999714 -0.10028665 0.98032829
vn 0.18571329 -0.15876103 0.96969351
vn 0.17921654 -0.06919478 0.98137328
vn 0.23323405 -0.08330982 0.96884537
vn 0.20092967 -0.06423232 0.97749756
vn 0.19643538 -0.08773695 0.97658352
vn 0.23041212 -0.16805115 0.95847225
vn 0.15831751 -0.15773096 0.97470842
vn 0.21260244 -0.07059951 0.97458500
vn 0.24585308 -0.09606205 0.96453530
vn 0.24573896 -0.03128801 0.96883096
vn 0.18404756 -0.10282278 0.97752441
vn 0.24834986 -0.07113336 0.96605507
vn 0.16909670 0.11861239 0.97843620
vn 0.25871160 -0.00992786 0.96590359
vn 0.18457639 -0.04020293 0.98199556
vn 0.15258809 -0.01308605 0.98820323
vn 0.18719764 -0.02519266 0.98199917
vn 0.18907425 0.05269360 0.98054797
vn 0.19404391 0.02562886 0.98065800
vn 0.19417956 -0.02292365 0.98069812
vn 0.18378351 -0.03825662 0.98222200
vn 0.17837998 -0.01440094 0.98385629
vn 0.16084616 -0.02220246 0.98672973
vn 0.20970458 -0.03557374 0.97711744
vn 0.16487413 -0.09624272 0.98160779
vn 0.17951165 -0.07805290 0.98065453
vn 0.17725915 -0.02625163 0.98381403
vn 0.18673550 0.08189708 0.97899067
vn 0.19515899 0.11154135 0.97440828
vn 0.11112962 -0.80653198 0.58065168
vn 0.18797454 0.00388195 0.98216623
vn 0.16936419 -0.44000674 0.88187859
vn 0.11113095 -0.80652673 0.58065871
vn 0.15837786 -0.47835235 0.86376818
vn 0.17585817 -0.01026146 0.98436203
vn 0.17509598 -0.06413444 0.98246026
vn 0.18330083 0.30559592 0.93435108
vn 0.21995486 -0.08135938 0.97211137
vn 0.21262806 -0.02523729 0.97680724
vn 0.21261647 -0.02963393 0.97668627
vn 0.23303628 0.12251144 0.96472019
vn 0.18669759 -0.05691386 0.98076747
vn 0.17826059 -0.07179972 0.98136026
vn 0.18186392 0.02569068 0.98298805
vn 0.44968058 0.07709529 0.88985600
vn 0.25027401 -0.09892367 0.96310800
vn 0.22928666 -0.07971762 0.97008903
vn 0.18568867 -0.06458261 0.98048396
vn 0.17325678 0.00974971 0.98482843
vn 0.13693483 0.00779480 0.99054939
vn 0.15189116 0.06427227 0.98630530
vn 0.20701341 0.01398465 0.97823815
vn 0.07363107 -0.04313366 0.99635232
vn 0.18934559 -0.02808398 0.98150881
vn 0.21726613 -0.09813773 0.97116652
vn 0.16013756 -0.00449340 0.98708448
vn 0.16631279 0.04517003 0.98503793
vn 0.19052556 0.06428711 0.97957500
vn 0.19460323 -0.01693097 0.98073591
vn 0.16893505 -0.13614620 0.97617886
vn 0.16268712 0.01557717 0.98655474
vn 0.16907406 0.07142877 0.98301164
vn 0.20157959 0.00605991 0.97945339
vn 0.14514274 -0.03175353 0.98890106
vn 0.16826972 0.04415209 0.98475169
vn 0.17846776 -0.05379300 0.98247421
vn 0.16321038 -0.03210245 0.98606886
vn 0.18335309 -0.05076680 0.98173539
vn 0.15396799 -0.15355960 0.97607034
vn 0.15521194 -0.03879469 0.98711916
vn 0.17151121 -0.02188072 0.98493916
vn 0.18122646 0.02692867 0.98307264
vn 0.21696557 -0.07944034 0.97294150
vn 0.21339733 0.01812617 0.97679733
vn 0.22212935 -0.02612253 0.97466721
vn 0.20564595 -0.01916316 0.97843882
vn 0.12753591 -0.00195716 0.99183202
vn 0.13696517 -0.14887468 0.97932470
vn 0.13524915 -0.07179372 0.98820713
vn 0.19930849 -0.03665345 0.97925107
vn 0.19109677 -0.01788844 0.98140819
vn 0.21695367 -0.02033640 0.97597005
vn 0.14516442 -0.02484469 0.98909556
vn 0.18195976 -0.03378745 0.98272532
vn 0.21329472 -0.07617932 0.97401338
vn 0.18438650 -0.05221493 0.98146585
vn 0.14062631 -0.04603937 0.98899172
vn 0.20170424 -0.00683734 0.97942261
vn 0.17000461 0.01768449 0.98528457
vn 0.21742218 -0.06620712 0.97382966
vn 0.18031858 -0.03114604 0.98311502
vn 0.22066558 -0.04565162 0.97428057
vn 0.19351832 -0.11605671 0.97420814
vn 0.23777024 -0.01424171 0.97121701
vn 0.17528516 0.00810973 0.98448430
vn 0.16094786 0.05024895 0.98568293
vn 0.10509089 0.09087058 0.99030220
vn 0.14644300 0.05298027 0.98779934
vn 0.19405851 0.03492554 0.98036804
vn 0.22800020 -0.18281631 0.95634414
vn 0.17542395 -0.05889561 0.98272974
vn 0.16987449 -0.05673997 0.98383090
vn 0.15977054 0.00959241 0.98710757
vn 0.18236686 0.00270933 0.98322682
vn 0.16758819 -0.07118599 0.98328366
vn 0.18544827 0.02711924 0.98227974
vn 0.20662240 0.06948343 0.97595043
vn 0.18528927 -0.00063745 0.98268382
vn 0.19921390 0.04456579 0.97894214
vn 0.18630958 0.01328316 0.98240129
vn 0.20134967 -0.04410969 0.97852575
vn 0.20135456 -0.04410648 0.97852489
vn 0.22209867 -0.04981985 0.97375057
vn 0.22794942 -0.05588815 0.97206768
vn 0.20031610 -0.05297387 0.97829813
vn 0.19359999 -0.14303066 0.97059841
vn 0.22754086 -0.01010687 0.97371608
vn 0.19530819 -0.05148709 0.97938950
vn 0.16447229 -0.04367708 0.98541422
vn 0.24259832 0.02255280 0.96986464
vn 0.22806658 0.01768431 0.97348493
vn 0.19251901 -0.11865415 0.97409323
vn 0.19442353 0.01929558 0.98072788
vn 0.10600454 -0.10091650 0.98923147
vn 0.19707951 -0.11444514 0.97368474
vn 0.20026394 0.02418331 0.97944348
vn 0.21425726 -0.00245955 0.97677417
vn 0.20870097 0.03478553 0.97736067
vn 0.13351255 -0.04115961 0.99019204
vn 0.12376134 -0.03873252 0.99155581
vn 0.17517547 -0.05151937 0.98318834
vn 0.19977192 -0.00974185 0.97979400
vn 0.18985242 -0.15284904 0.96984186
vn 0.24405861 -0.05385134 0.96826413
vn 0.17405335 0.06839263 0.98235833
vn 0.14123500 -0.11154795 0.98367156
vn 0.15895719 0.01128196 0.98722101
vn 0.19652688 0.00961943 0.98045125
vn 0.19430965 0.06944479 0.97847901
vn 0.04249495 -0.03832251 0.99836144
vn 0.02488341 0.00737989 0.99966312
vn 0.24416826 -0.06864245 0.96730041
vn 0.26379091 -0.06779311 0.96219460
vn 0.18869686 0.10758630 0.97612432
vn 0.28798290 -0.06664519 0.95531370
vt 0.99999994 0.98583102
vt 0.99999994 0.98616719
vt 0.00000006 0.98893374
vt 0.00000007 0.98819250
vt 1.00000000 0.98664260
vt 0.00000006 0.98998195
vt 1.00000000 0.98736632
vt 0.00000005 0.99157751
vt 1.00000000 0.98860139
vt 0.00000004 0.99430072
vt 1.00000000 0.99118632
vt 0.00000001 1.00000000
vt 1.00000000 1.00000000
vt 0.64999998 0.00000000
vt 0.74000001 0.08064516
vt 0.63999999 0.03225807
vt 1.00000000 0.98097956
vt 0.99999994 0.98387098
vt 0.00000006 0.98387098
vt 0.00000006 0.97749597
vt 0.50000000 0.24193549
vt 0.57999998 0.22580646
vt 0.47000000 0.38709676
vt 0.40714285 0.00000000
vt 0.47799999 0.00000000
vt 0.47000000 0.06451613
vt 0.16000001 0.20967741
vt 0.08000001 0.22580646
vt 0.12000000 0.14516129
vt 0.27000001 0.00000000
vt 0.33000001 0.00000000
vt 0.30000001 0.04838710
vt 0.07000001 0.11290323
vt 0.07000001 0.09677420
vt 0.11000001 0.14516129
vt 0.55000001 0.51612902
vt 0.54000002 0.53225809
vt 0.50999999 0.14516129
vt 0.50999999 0.06451613
vt 0.58999997 0.08064516
vt 0.60000002 0.08064516
vt 0.80000001 0.53225809
vt 0.81999999 0.51612902
vt 0.89999998 0.51612902
vt 0.87000000 0.95161289
vt 0.94000000 0.35483870
vt 0.94999999 0.35483870
vt 0.63999999 0.38709676
vt 0.63000000 0.41935483
vt 0.64999998 0.51612902
vt 1.00000000 0.08064516
vt 0.89999998 0.12903225
vt 0.90999997 0.09677420
vt 0.00000001 0.96853107
vt 0.00000001 0.96774191
vt 0.79000002 0.96774191
vt 0.00000002 0.97050935
vt 1.00000000 0.97099876
vt 1.00000000 0.93483871
vt 1.00000000 0.95598119
vt 0.00000000 0.96210390
vt 0.25000000 0.43548387
vt 0.24000001 0.54838711
vt 0.15000001 0.35483870
vt 0.56000000 0.56451613
vt 0.77999997 0.51612902
vt 0.79000002 0.37096775
vt 0.49000001 0.54838711
vt 0.55000001 0.53225809
vt 0.62428570 0.00000000
vt 0.63000000 0.03225807
vt 0.57666665 0.00000000
vt 0.55000001 0.06451613
vt 0.83999997 0.24193549
vt 0.86000001 0.30645162
vt 0.79000002 0.33870968
vt 0.81999999 0.01612903
vt 0.79000002 0.08064516
vt 0.77999997 0.00000000
vt 1.00000000 0.22903226
vt 1.00000000 0.23225807
vt 0.92000002 0.25806451
vt 0.92000002 0.24193549
vt 1.00000000 0.36059907
vt 1.00000000 0.50000000
vt 0.54000002 0.12903225
vt 0.69000000 0.24193549
vt 0.54000002 0.14516129
vt 0.58999997 0.61290324
vt 0.86000001 0.32258064
vt 0.65999997 0.53225809
vt 0.72181815 0.00000000
vt 0.50000000 0.00000000
vt 0.55000001 0.00000000
vt 0.00000001 0.41532257
vt 0.00000001 0.35483870
vt 0.00000001 0.15322581
vt 0.00000001 0.13508065
vt 0.01000001 0.14516129
vt 0.93000001 0.35483870
vt 0.75999999 0.22580646
vt 0.76999998 0.17741935
vt 0.77999997 0.20967741
vt 0.31000000 0.29032257
vt 0.31000000 0.04838710
vt 0.33000001 0.08064516
vt 0.17000000 0.12903225
vt 0.17000000 0.04838710
vt 0.25000000 0.04838710
vt 0.11000001 0.03225807
vt 0.16000001 0.12903225
vt 0.81000000 0.14516129
vt 0.75000000 0.14516129
vt 0.34875000 0.00000000
vt 1.00000000 0.34907833
vt 0.04800001 0.00000000
vt 0.12000000 0.00000000
vt 0.05000001 0.04838710
vt 0.74000001 0.14516129
vt 0.87000000 0.12903225
vt 0.87000000 0.25806451
vt 0.81999999 0.00000000
vt 0.57999998 0.61290324
vt 0.25000000 0.00000000
vt 0.89200002 0.00000000
vt 0.86222219 0.00000000
vt 0.83999997 0.08064516
vt 0.00000001 0.57258064
vt 0.00000001 0.47580644
vt 0.11000001 0.56451613
vt 0.25999999 0.58064514
vt 0.31000000 0.54838711
vt 0.31999999 0.67741936
vt 1.00000000 0.74193549
vt 0.00000001 0.03456221
vt 0.00000001 0.00000000
vt 0.01181819 0.00000000
vt 0.02000001 0.04838710
vt 0.00000001 0.05197133
vt 0.17600000 0.00000000
vt 0.02000001 0.06451613
vt 0.96333331 0.00000000
vt 0.99374998 0.00000000
vt 0.39000002 0.53225809
vt 0.37000000 0.53225809
vt 0.00000000 0.95794046
vt 0.00000000 0.83032888
vt 0.00000001 0.20967741
vt 0.02000001 0.16129032
vt 1.00000000 0.64408600
vt 1.00000000 0.58333331
vt 1.00000000 0.56451613
vt 1.00000000 0.01612903
vt 1.00000000 0.03101737
vt 0.99750000 0.00000000
vt 0.00000001 0.06451613
vt 0.20800000 0.00000000
vt 0.03363637 0.00000000
vt 1.00000000 0.26267281
vt 0.02000001 0.20967741
vt 0.00000001 0.27419356
vt 0.00000000 0.74310851
vt 0.00000001 0.65341336
vt 0.83285713 0.00000000
vt 0.82333332 0.00000000
vt 1.00000000 0.00000000
vt 0.33500001 0.00000000
vt 0.00000001 0.60483873
vt 0.76499999 0.00000000
f 1/1/1 2/2/2 3/3/3
f 1/1/1 3/3/3 4/4/4
f 2/2/2 5/5/5 6/6/6
f 2/2/2 6/6/6 3/3/3
f 5/5/5 7/7/7 8/8/8
f 5/5/5 8/8/8 6/6/6
f 7/7/7 9/9/9 10/10/10
f 7/7/7 10/10/10 8/8/8
f 9/9/9 11/11/11 12/12/12
f 12/12/12 10/10/10 9/9/9
f 11/11/11 13/13/13 12/12/12
f 14/14/14 15/15/15 16/16/16
f 17/17/17 18/18/18 19/19/19
f 17/17/17 19/19/19 20/20/20
f 21/21/21 22/22/22 23/23/23
f 18/18/18 1/1/1 4/4/4
f 18/18/18 4/4/4 19/19/19
f 24/24/24 25/25/25 26/26/26
f 27/27/27 28/28/28 29/29/29
f 30/30/30 31/31/31 32/32/32
f 33/33/33 34/34/34 35/35/35
f 36/36/36 37/37/37 23/23/23
f 38/38/38 26/26/26 39/39/39
f 22/22/22 40/40/40 41/41/41
f 42/42/42 43/43/43 44/44/44
f 42/42/42 44/44/44 45/45/45
f 46/46/46 47/47/47 44/44/44
f 22/22/22 48/48/48 49/49/49
f 50/50/50 49/49/49 48/48/48
f 51/51/51 52/52/52 53/53/53
f 54/54/54 55/55/55 56/56/56
f 57/57/57 54/54/54 56/56/56
f 57/57/57 56/56/56 20/20/20
f 58/58/58 17/17/17 20/20/20
f 58/58/58 20/20/20 56/56/56
f 59/59/59 60/60/60 45/45/45
f 55/55/55 61/61/61 56/56/56
f 62/62/62 63/63/63 64/64/64
f 65/65/65 36/36/36 50/50/50
f 36/36/36 23/23/23 49/49/49
f 66/66/66 67/67/67 43/43/43
f 65/65/65 68/68/68 37/37/37
f 69/69/69 37/37/37 36/36/36
f 70/70/70 71/71/71 72/72/72
f 72/72/72 71/71/71 73/73/73
f 68/68/68 23/23/23 37/37/37
f 74/74/74 75/75/75 76/76/76
f 77/77/77 78/78/78 79/79/79
f 65/65/65 69/69/69 36/36/36
f 80/80/80 81/81/81 82/82/82
f 82/82/82 83/83/83 80/80/80
f 16/16/16 41/41/41 71/71/71
f 84/84/84 85/85/85 47/47/47
f 41/41/41 40/40/40 71/71/71
f 86/86/86 73/73/73 40/40/40
f 65/65/65 37/37/37 69/69/69
f 87/87/87 22/22/22 41/41/41
f 88/88/88 86/86/86 40/40/40
f 60/60/60 58/58/58 56/56/56
f 56/56/56 45/45/45 60/60/60
f 73/73/73 71/71/71 40/40/40
f 89/89/89 65/65/65 50/50/50
f 90/90/90 44/44/44 43/43/43
f 50/50/50 36/36/36 49/49/49
f 50/50/50 48/48/48 91/91/91
f 14/14/14 92/92/92 15/15/15
f 51/51/51 83/83/83 52/52/52
f 93/93/93 94/94/94 73/73/73
f 95/95/95 96/96/96 28/28/28
f 28/28/28 64/64/64 95/95/95
f 97/97/97 98/98/98 99/99/99
f 100/100/100 46/46/46 44/44/44
f 90/90/90 100/100/100 44/44/44
f 75/75/75 90/90/90 76/76/76
f 82/82/82 47/47/47 46/46/46
f 66/66/66 91/91/91 48/48/48
f 87/87/87 41/41/41 16/16/16
f 90/90/90 43/43/43 67/67/67
f 101/101/101 102/102/102 103/103/103
f 66/66/66 42/42/42 91/91/91
f 87/87/87 76/76/76 67/67/67
f 21/21/21 23/23/23 104/104/104
f 105/105/105 106/106/106 32/32/32
f 42/42/42 45/45/45 56/56/56
f 42/42/42 56/56/56 91/91/91
f 82/82/82 46/46/46 100/100/100
f 90/90/90 67/67/67 76/76/76
f 66/66/66 48/48/48 67/67/67
f 66/66/66 43/43/43 42/42/42
f 107/107/107 108/108/108 109/109/109
f 110/110/110 108/108/108 111/111/111
f 78/78/78 112/112/112 113/113/113
f 75/75/75 100/100/100 90/90/90
f 114/114/114 24/24/24 26/26/26
f 26/26/26 106/106/106 114/114/114
f 106/106/106 104/104/104 109/109/109
f 93/93/93 73/73/73 39/39/39
f 115/115/115 84/84/84 47/47/47
f 116/116/116 117/117/117 118/118/118
f 119/119/119 16/16/16 15/15/15
f 120/120/120 121/121/121 74/74/74
f 79/79/79 122/122/122 77/77/77
f 89/89/89 50/50/50 91/91/91
f 123/123/123 89/89/89 56/56/56
f 82/82/82 100/100/100 75/75/75
f 74/74/74 76/76/76 103/103/103
f 110/110/110 111/111/111 29/29/29
f 93/93/93 39/39/39 26/26/26
f 107/107/107 111/111/111 108/108/108
f 30/30/30 32/32/32 124/124/124
f 124/124/124 32/32/32 109/109/109
f 110/110/110 35/35/35 34/34/34
f 74/74/74 121/121/121 75/75/75
f 125/125/125 53/53/53 126/126/126
f 126/126/126 53/53/53 127/127/127
f 128/128/128 129/129/129 130/130/130
f 131/131/131 132/132/132 133/133/133
f 27/27/27 107/107/107 104/104/104
f 134/134/134 59/59/59 45/45/45
f 135/135/135 136/136/136 137/137/137
f 135/135/135 137/137/137 138/138/138
f 139/139/139 135/135/135 138/138/138
f 117/117/117 140/140/140 108/108/108
f 85/85/85 44/44/44 47/47/47
f 33/33/33 141/141/141 34/34/34
f 89/89/89 91/91/91 56/56/56
f 123/123/123 68/68/68 65/65/65
f 112/112/112 74/74/74 103/103/103
f 142/142/142 143/143/143 51/51/51
f 53/53/53 142/142/142 51/51/51
f 70/70/70 14/14/14 71/71/71
f 144/144/144 145/145/145 23/23/23
f 146/146/146 147/147/147 56/56/56
f 27/27/27 64/64/64 28/28/28
f 29/29/29 28/28/28 35/35/35
f 133/133/133 68/68/68 123/123/123
f 123/123/123 65/65/65 89/89/89
f 107/107/107 109/109/109 104/104/104
f 27/27/27 104/104/104 64/64/64
f 110/110/110 29/29/29 35/35/35
f 148/148/148 99/99/99 149/149/149
f 117/117/117 110/110/110 118/118/118
f 14/14/14 16/16/16 71/71/71
f 150/150/150 45/45/45 151/151/151
f 151/151/151 45/45/45 44/44/44
f 85/85/85 152/152/152 44/44/44
f 153/153/153 154/154/154 143/143/143
f 143/143/143 155/155/155 153/153/153
f 154/154/154 51/51/51 143/143/143
f 27/27/27 29/29/29 111/111/111
f 27/27/27 111/111/111 107/107/107
f 21/21/21 104/104/104 106/106/106
f 106/106/106 109/109/109 32/32/32
f 156/156/156 139/139/139 138/138/138
f 156/156/156 138/138/138 141/141/141
f 157/157/157 124/124/124 109/109/109
f 158/158/158 116/116/116 118/118/118
f 118/118/118 34/34/34 141/141/141
f 118/118/118 110/110/110 34/34/34
f 118/118/118 141/141/141 138/138/138
f 61/61/61 146/146/146 56/56/56
f 22/22/22 49/49/49 23/23/23
f 86/86/86 39/39/39 73/73/73
f 101/101/101 119/119/119 102/102/102
f 88/88/88 38/38/38 86/86/86
f 102/102/102 113/113/113 112/112/112
f 87/87/87 67/67/67 48/48/48
f 21/21/21 106/106/106 26/26/26
f 38/38/38 21/21/21 26/26/26
f 159/159/159 115/115/115 47/47/47
f 120/120/120 52/52/52 121/121/121
f 33/33/33 35/35/35 28/28/28
f 99/99/99 141/141/141 33/33/33
f 160/160/160 149/149/149 28/28/28
f 149/149/149 33/33/33 28/28/28
f 96/96/96 161/161/161 160/160/160
f 96/96/96 160/160/160 28/28/28
f 129/129/129 95/95/95 64/64/64
f 64/64/64 130/130/130 129/129/129
f 147/147/147 162/162/162 133/133/133
f 147/147/147 133/133/133 56/56/56
f 132/132/132 145/145/145 133/133/133
f 162/162/162 163/163/163 133/133/133
f 120/120/120 127/127/127 53/53/53
f 164/164/164 127/127/127 165/165/165
f 165/165/165 127/127/127 77/77/77
f 120/120/120 53/53/53 52/52/52
f 78/78/78 77/77/77 127/127/127
f 82/82/82 75/75/75 121/121/121
f 83/83/83 82/82/82 121/121/121
f 159/159/159 47/47/47 81/81/81
f 81/81/81 47/47/47 82/82/82
f 117/117/117 108/108/108 110/110/110
f 166/166/166 153/153/153 155/155/155
f 120/120/120 74/74/74 112/112/112
f 120/120/120 112/112/112 127/127/127
f 113/113/113 119/119/119 15/15/15
f 101/101/101 87/87/87 119/119/119
f 87/87/87 48/48/48 22/22/22
f 87/87/87 16/16/16 119/119/119
f 158/158/158 118/118/118 137/137/137
f 137/137/137 118/118/118 138/138/138
f 148/148/148 97/97/97 99/99/99
f 161/161/161 148/148/148 160/160/160
f 31/31/31 167/167/167 105/105/105
f 31/31/31 105/105/105 32/32/32
f 167/167/167 114/114/114 106/106/106
f 106/106/106 105/105/105 167/167/167
f 168/168/168 128/128/128 130/130/130
f 94/94/94 72/72/72 73/73/73
f 122/122/122 165/165/165 77/77/77
f 148/148/148 149/149/149 160/160/160
f 38/38/38 39/39/39 86/86/86
f 88/88/88 22/22/22 21/21/21
f 157/157/157 109/109/109 140/140/140
f 140/140/140 109/109/109 108/108/108
f 102/102/102 112/112/112 103/103/103
f 102/102/102 119/119/119 113/113/113
f 83/83/83 121/121/121 52/52/52
f 51/51/51 80/80/80 83/83/83
f 133/133/133 123/123/123 56/56/56
f 163/163/163 168/168/168 130/130/130
f 130/130/130 133/133/133 163/163/163
f 145/145/145 104/104/104 23/23/23
f 144/144/144 68/68/68 133/133/133
f 131/131/131 133/133/133 130/130/130
f 62/62/62 104/104/104 145/145/145
f 63/63/63 130/130/130 64/64/64
f 62/62/62 145/145/145 132/132/132
f 144/144/144 23/23/23 68/68/68
f 144/144/144 133/133/133 145/145/145
f 131/131/131 63/63/63 132/132/132
f 131/131/131 130/130/130 63/63/63
f 62/62/62 64/64/64 104/104/104
f 62/62/62 132/132/132 63/63/63
f 92/92/92 169/169/169 15/15/15
f 88/88/88 40/40/40 22/22/22
f 88/88/88 21/21/21 38/38/38
f 98/98/98 156/156/156 141/141/141
f 141/141/141 99/99/99 98/98/98
f 99/99/99 33/33/33 149/149/149
f 101/101/101 103/103/103 76/76/76
f 101/101/101 76/76/76 87/87/87
f 150/150/150 134/134/134 45/45/45
f 152/152/152 151/151/151 44/44/44
f 78/78/78 127/127/127 112/112/112
f 169/169/169 79/79/79 15/15/15
f 78/78/78 113/113/113 15/15/15
f 79/79/79 78/78/78 15/15/15
f 25/25/25 93/93/93 26/26/26
f 125/125/125 142/142/142 53/53/53
f 164/164/164 126/126/126 127/127/127

