# https://github.com/mikedh/trimesh
mtllib material.mtl
usemtl mtl1
v 0.00000000 0.00000000 140.00000000
v 12.00000000 0.00000000 140.00000000
v 25.00000000 0.00000000 140.00000000
v 25.00000000 12.00000000 140.00000000
v 25.00000000 25.00000000 140.00000000
v 12.00000000 25.00000000 140.00000000
v 0.00000000 25.00000000 140.00000000
v 0.00000000 12.00000000 140.00000000
v 12.00000000 12.00000000 140.00000000
vn 0.00000000 0.00000000 1.00000000
vn 0.00000000 0.00000000 1.00000000
vn 0.00000000 0.00000000 1.00000000
vn 0.00000000 0.00000000 1.00000000
vn 0.00000000 0.00000000 1.00000000
vn 0.00000000 0.00000000 1.00000000
vn 0.00000000 0.00000000 1.00000000
vn 0.00000000 0.00000000 1.00000000
vn 0.00000000 0.00000000 1.00000000
vt 0.00000000 0.00000000
vt 0.47999999 0.00000000
vt 1.00000000 0.00000000
vt 1.00000000 0.47999999
vt 1.00000000 1.00000000
vt 0.47999999 1.00000000
vt 0.00000000 1.00000000
vt 0.00000000 0.47999999
vt 0.47999999 0.47999999
f 1/1/1 2/2/2 9/9/9
f 8/8/8 9/9/9 6/6/6
f 2/2/2 3/3/3 4/4/4
f 9/9/9 4/4/4 5/5/5
f 9/9/9 8/8/8 1/1/1
f 6/6/6 7/7/7 8/8/8
f 4/4/4 9/9/9 2/2/2
f 5/5/5 6/6/6 9/9/9

